<svg width="17" height="17" viewBox="0 0 17 17" fill="none" xmlns="http://www.w3.org/2000/svg">
<path d="M8.50703 16.9859C13.1976 16.9859 17 13.1835 17 8.49297C17 3.80243 13.1976 0 8.50703 0C3.8165 0 0.0140686 3.80243 0.0140686 8.49297C0.0140686 13.1835 3.8165 16.9859 8.50703 16.9859Z" fill="#25C196"/>
<path d="M8.50745 12.7393C8.24688 12.7393 8.03481 12.5277 8.03481 12.2676V9.43689V8.96506H7.56298H4.73234C4.47223 8.96506 4.26062 8.75344 4.26062 8.49332C4.26062 8.23274 4.47223 8.02073 4.73234 8.02073H7.56298H8.03481V7.5489V4.7182C8.03481 4.45808 8.24688 4.24646 8.50745 4.24646C8.76755 4.24646 8.97916 4.45808 8.97916 4.7182V7.5489V8.02073H9.451H12.2818C12.5419 8.02073 12.7535 8.23274 12.7535 8.49332C12.7535 8.75344 12.5419 8.96506 12.2818 8.96506H9.451H8.97916V9.43689V12.2676C8.97916 12.5277 8.76755 12.7393 8.50745 12.7393Z" fill="white"/>
<path d="M8.50729 12.2675V8.49326L12.2817 8.49259H8.50729L8.5066 4.71823V8.49259L4.73229 8.49326H8.5066L8.5059 12.2675C8.5059 12.2675 8.50636 12.2675 8.50729 12.2675ZM8.5074 13.2112C7.98592 13.2112 7.56293 12.7891 7.56293 12.2676V9.43692H4.73229C4.21162 9.43692 3.78874 9.01397 3.78874 8.49335C3.78874 7.97188 4.21162 7.54893 4.73229 7.54893H7.56293V4.71823C7.56293 4.19676 7.98592 3.77466 8.5074 3.77466C9.02808 3.77466 9.45095 4.19676 9.45095 4.71823V7.54893H12.2817C12.8032 7.54893 13.2253 7.97188 13.2253 8.49335C13.2253 9.01397 12.8032 9.43692 12.2817 9.43692H9.45095V12.2676C9.45095 12.7891 9.02808 13.2112 8.5074 13.2112Z" fill="white"/>
</svg>
